<mxfile host="app.diagrams.net" modified="2024-02-26T23:27:53.150Z" agent="Mozilla/5.0 (Macintosh; Intel Mac OS X 10_15_7) AppleWebKit/537.36 (KHTML, like Gecko) Chrome/121.0.0.0 Safari/537.36" etag="k4JYBeQ-1_FlcaOtH0MS" version="23.1.7" type="github">
  <diagram name="Page-1" id="97916047-d0de-89f5-080d-49f4d83e522f">
    <mxGraphModel dx="2185" dy="1673" grid="1" gridSize="10" guides="1" tooltips="1" connect="1" arrows="1" fold="1" page="1" pageScale="1.5" pageWidth="1169" pageHeight="827" background="none" math="0" shadow="0">
      <root>
        <mxCell id="0" />
        <mxCell id="1" parent="0" />
        <mxCell id="3" value="Home" style="rounded=1;fillColor=#10739E;strokeColor=none;shadow=1;gradientColor=none;fontStyle=1;fontColor=#FFFFFF;fontSize=14;" parent="1" vertex="1">
          <mxGeometry x="667" y="345.5" width="220" height="60" as="geometry" />
        </mxCell>
        <mxCell id="4" value="About" style="rounded=1;fillColor=#10739E;strokeColor=none;shadow=1;gradientColor=none;fontStyle=1;fontColor=#FFFFFF;fontSize=14;" parent="1" vertex="1">
          <mxGeometry x="1270" y="470" width="200" height="60" as="geometry" />
        </mxCell>
        <mxCell id="5" value="Contact &amp; Schedule" style="rounded=1;fillColor=#10739E;strokeColor=none;shadow=1;gradientColor=none;fontStyle=1;fontColor=#FFFFFF;fontSize=14;" parent="1" vertex="1">
          <mxGeometry x="1050" y="470" width="200" height="60" as="geometry" />
        </mxCell>
        <mxCell id="6" value="Review" style="rounded=1;fillColor=#10739E;strokeColor=none;shadow=1;gradientColor=none;fontStyle=1;fontColor=#FFFFFF;fontSize=14;" parent="1" vertex="1">
          <mxGeometry x="820" y="470" width="200" height="60" as="geometry" />
        </mxCell>
        <mxCell id="13" value="Events" style="rounded=1;fillColor=#10739E;strokeColor=none;shadow=1;gradientColor=none;fontStyle=1;fontColor=#FFFFFF;fontSize=14;" parent="1" vertex="1">
          <mxGeometry x="320" y="610" width="200" height="60" as="geometry" />
        </mxCell>
        <mxCell id="30" value="" style="edgeStyle=elbowEdgeStyle;elbow=vertical;strokeWidth=4;endArrow=block;endFill=1;fontStyle=1;strokeColor=#23445D;" parent="1" source="3" target="5" edge="1">
          <mxGeometry x="22" y="165.5" width="100" height="100" as="geometry">
            <mxPoint x="22" y="265.5" as="sourcePoint" />
            <mxPoint x="122" y="165.5" as="targetPoint" />
            <Array as="points">
              <mxPoint x="930" y="440" />
            </Array>
          </mxGeometry>
        </mxCell>
        <mxCell id="31" value="" style="edgeStyle=elbowEdgeStyle;elbow=vertical;strokeWidth=4;endArrow=block;endFill=1;fontStyle=1;strokeColor=#23445D;" parent="1" source="3" target="4" edge="1">
          <mxGeometry x="22" y="165.5" width="100" height="100" as="geometry">
            <mxPoint x="22" y="265.5" as="sourcePoint" />
            <mxPoint x="122" y="165.5" as="targetPoint" />
            <Array as="points">
              <mxPoint x="1040" y="440" />
            </Array>
          </mxGeometry>
        </mxCell>
        <mxCell id="43" value="" style="edgeStyle=elbowEdgeStyle;elbow=vertical;strokeWidth=4;endArrow=block;endFill=1;fontStyle=1;strokeColor=#23445D;" parent="1" source="14" edge="1">
          <mxGeometry x="62" y="175.5" width="100" height="100" as="geometry">
            <mxPoint x="62" y="275.5" as="sourcePoint" />
            <mxPoint x="651.9999999999998" y="795.4999999999998" as="targetPoint" />
          </mxGeometry>
        </mxCell>
        <mxCell id="44" value="" style="edgeStyle=elbowEdgeStyle;elbow=vertical;strokeWidth=4;endArrow=block;endFill=1;fontStyle=1;strokeColor=#23445D;" parent="1" source="15" edge="1">
          <mxGeometry x="62" y="185.5" width="100" height="100" as="geometry">
            <mxPoint x="62" y="285.5" as="sourcePoint" />
            <mxPoint x="651.9999999999998" y="885.4999999999998" as="targetPoint" />
          </mxGeometry>
        </mxCell>
        <mxCell id="46" value="" style="edgeStyle=elbowEdgeStyle;elbow=vertical;strokeWidth=4;endArrow=block;endFill=1;fontStyle=1;strokeColor=#23445D;" parent="1" target="19" edge="1">
          <mxGeometry x="72" y="165.5" width="100" height="100" as="geometry">
            <mxPoint x="942" y="675.4999999999998" as="sourcePoint" />
            <mxPoint x="172" y="165.5" as="targetPoint" />
          </mxGeometry>
        </mxCell>
        <mxCell id="47" value="" style="edgeStyle=elbowEdgeStyle;elbow=vertical;strokeWidth=4;endArrow=block;endFill=1;fontStyle=1;strokeColor=#23445D;" parent="1" target="20" edge="1">
          <mxGeometry x="72" y="175.5" width="100" height="100" as="geometry">
            <mxPoint x="942" y="765.4999999999998" as="sourcePoint" />
            <mxPoint x="172" y="175.5" as="targetPoint" />
          </mxGeometry>
        </mxCell>
        <mxCell id="48" value="" style="edgeStyle=elbowEdgeStyle;elbow=vertical;strokeWidth=4;endArrow=block;endFill=1;fontStyle=1;strokeColor=#23445D;" parent="1" target="21" edge="1">
          <mxGeometry x="72" y="185.5" width="100" height="100" as="geometry">
            <mxPoint x="942" y="855.4999999999998" as="sourcePoint" />
            <mxPoint x="172" y="185.5" as="targetPoint" />
          </mxGeometry>
        </mxCell>
        <mxCell id="49" value="" style="edgeStyle=elbowEdgeStyle;elbow=vertical;strokeWidth=4;endArrow=block;endFill=1;fontStyle=1;strokeColor=#23445D;" parent="1" target="22" edge="1">
          <mxGeometry x="72" y="195.5" width="100" height="100" as="geometry">
            <mxPoint x="942" y="945.4999999999998" as="sourcePoint" />
            <mxPoint x="172" y="195.5" as="targetPoint" />
          </mxGeometry>
        </mxCell>
        <mxCell id="54" value="" style="edgeStyle=elbowEdgeStyle;elbow=vertical;strokeWidth=4;endArrow=block;endFill=1;fontStyle=1;strokeColor=#23445D;exitX=0.5;exitY=1;exitDx=0;exitDy=0;entryX=0.5;entryY=0;entryDx=0;entryDy=0;" parent="1" source="Xg9k1YAQE1Uhe5DRs7J3-55" target="13" edge="1">
          <mxGeometry x="22" y="165.5" width="100" height="100" as="geometry">
            <mxPoint x="22" y="265.5" as="sourcePoint" />
            <mxPoint x="122" y="165.5" as="targetPoint" />
            <Array as="points">
              <mxPoint x="520" y="560" />
            </Array>
          </mxGeometry>
        </mxCell>
        <mxCell id="Xg9k1YAQE1Uhe5DRs7J3-55" value="Portfolio" style="rounded=1;fillColor=#10739E;strokeColor=none;shadow=1;gradientColor=none;fontStyle=1;fontColor=#FFFFFF;fontSize=14;" vertex="1" parent="1">
          <mxGeometry x="520" y="470" width="200" height="60" as="geometry" />
        </mxCell>
        <mxCell id="Xg9k1YAQE1Uhe5DRs7J3-56" value="" style="edgeStyle=elbowEdgeStyle;elbow=vertical;strokeWidth=4;endArrow=block;endFill=1;fontStyle=1;strokeColor=#23445D;exitX=0.5;exitY=1;exitDx=0;exitDy=0;entryX=0.5;entryY=0;entryDx=0;entryDy=0;" edge="1" parent="1" source="3" target="Xg9k1YAQE1Uhe5DRs7J3-55">
          <mxGeometry x="22" y="165.5" width="100" height="100" as="geometry">
            <mxPoint x="782" y="416" as="sourcePoint" />
            <mxPoint x="652" y="466" as="targetPoint" />
            <Array as="points">
              <mxPoint x="690" y="440" />
            </Array>
          </mxGeometry>
        </mxCell>
        <mxCell id="Xg9k1YAQE1Uhe5DRs7J3-57" value="Other Portraits" style="rounded=1;fillColor=#10739E;strokeColor=none;shadow=1;gradientColor=none;fontStyle=1;fontColor=#FFFFFF;fontSize=14;" vertex="1" parent="1">
          <mxGeometry x="550" y="610" width="200" height="60" as="geometry" />
        </mxCell>
        <mxCell id="Xg9k1YAQE1Uhe5DRs7J3-58" value="Family &amp; Child Portraits" style="rounded=1;fillColor=#10739E;strokeColor=none;shadow=1;gradientColor=none;fontStyle=1;fontColor=#FFFFFF;fontSize=14;" vertex="1" parent="1">
          <mxGeometry x="90" y="610" width="200" height="60" as="geometry" />
        </mxCell>
        <mxCell id="Xg9k1YAQE1Uhe5DRs7J3-59" value="" style="edgeStyle=elbowEdgeStyle;elbow=vertical;strokeWidth=4;endArrow=block;endFill=1;fontStyle=1;strokeColor=#23445D;exitX=0.5;exitY=1;exitDx=0;exitDy=0;" edge="1" parent="1" target="Xg9k1YAQE1Uhe5DRs7J3-58">
          <mxGeometry x="22" y="165.5" width="100" height="100" as="geometry">
            <mxPoint x="620" y="530" as="sourcePoint" />
            <mxPoint x="420" y="600" as="targetPoint" />
            <Array as="points">
              <mxPoint x="410" y="560" />
            </Array>
          </mxGeometry>
        </mxCell>
        <mxCell id="Xg9k1YAQE1Uhe5DRs7J3-60" value="" style="edgeStyle=elbowEdgeStyle;elbow=vertical;strokeWidth=4;endArrow=block;endFill=1;fontStyle=1;strokeColor=#23445D;entryX=0.5;entryY=0;entryDx=0;entryDy=0;" edge="1" parent="1" target="Xg9k1YAQE1Uhe5DRs7J3-57">
          <mxGeometry x="22" y="165.5" width="100" height="100" as="geometry">
            <mxPoint x="620" y="530" as="sourcePoint" />
            <mxPoint x="190" y="610" as="targetPoint" />
            <Array as="points">
              <mxPoint x="640" y="560" />
            </Array>
          </mxGeometry>
        </mxCell>
        <mxCell id="Xg9k1YAQE1Uhe5DRs7J3-61" value="Photo360 @ SDCC" style="rounded=1;fillColor=#10739E;strokeColor=none;shadow=1;gradientColor=none;fontStyle=1;fontColor=#FFFFFF;fontSize=14;" vertex="1" parent="1">
          <mxGeometry x="1130" y="610" width="200" height="60" as="geometry" />
        </mxCell>
        <mxCell id="Xg9k1YAQE1Uhe5DRs7J3-69" value="Afroture @ SDCC" style="rounded=1;fillColor=#10739E;strokeColor=none;shadow=1;gradientColor=none;fontStyle=1;fontColor=#FFFFFF;fontSize=14;" vertex="1" parent="1">
          <mxGeometry x="890" y="610" width="200" height="60" as="geometry" />
        </mxCell>
        <mxCell id="Xg9k1YAQE1Uhe5DRs7J3-72" value="" style="edgeStyle=elbowEdgeStyle;elbow=vertical;strokeWidth=4;endArrow=block;endFill=1;fontStyle=1;strokeColor=#23445D;entryX=0.5;entryY=0;entryDx=0;entryDy=0;exitX=0.5;exitY=1;exitDx=0;exitDy=0;" edge="1" parent="1" source="6" target="Xg9k1YAQE1Uhe5DRs7J3-69">
          <mxGeometry x="22" y="165.5" width="100" height="100" as="geometry">
            <mxPoint x="852" y="530" as="sourcePoint" />
            <mxPoint x="872" y="610" as="targetPoint" />
            <Array as="points" />
          </mxGeometry>
        </mxCell>
        <mxCell id="Xg9k1YAQE1Uhe5DRs7J3-73" value="" style="edgeStyle=elbowEdgeStyle;elbow=vertical;strokeWidth=4;endArrow=block;endFill=1;fontStyle=1;strokeColor=#23445D;entryX=0.5;entryY=0;entryDx=0;entryDy=0;exitX=0.5;exitY=1;exitDx=0;exitDy=0;" edge="1" parent="1" source="6" target="Xg9k1YAQE1Uhe5DRs7J3-61">
          <mxGeometry x="22" y="165.5" width="100" height="100" as="geometry">
            <mxPoint x="852" y="530" as="sourcePoint" />
            <mxPoint x="1150" y="609.9999999999998" as="targetPoint" />
            <Array as="points" />
          </mxGeometry>
        </mxCell>
        <mxCell id="Xg9k1YAQE1Uhe5DRs7J3-76" value="Jones Elementary &#xa;Jog-a-thon" style="rounded=1;fillColor=#10739E;strokeColor=none;shadow=1;gradientColor=none;fontStyle=1;fontColor=#FFFFFF;fontSize=14;" vertex="1" parent="1">
          <mxGeometry x="1390" y="610" width="200" height="60" as="geometry" />
        </mxCell>
        <mxCell id="Xg9k1YAQE1Uhe5DRs7J3-77" value="" style="edgeStyle=elbowEdgeStyle;elbow=vertical;strokeWidth=4;endArrow=block;endFill=1;fontStyle=1;strokeColor=#23445D;entryX=0.5;entryY=0;entryDx=0;entryDy=0;exitX=0.5;exitY=1;exitDx=0;exitDy=0;" edge="1" parent="1" source="6" target="Xg9k1YAQE1Uhe5DRs7J3-76">
          <mxGeometry x="22" y="165.5" width="100" height="100" as="geometry">
            <mxPoint x="862" y="540" as="sourcePoint" />
            <mxPoint x="1170" y="620" as="targetPoint" />
            <Array as="points" />
          </mxGeometry>
        </mxCell>
        <mxCell id="Xg9k1YAQE1Uhe5DRs7J3-78" value="" style="edgeStyle=elbowEdgeStyle;elbow=vertical;strokeWidth=4;endArrow=block;endFill=1;fontStyle=1;strokeColor=#23445D;exitX=0.5;exitY=1;exitDx=0;exitDy=0;entryX=0.468;entryY=0.014;entryDx=0;entryDy=0;entryPerimeter=0;" edge="1" parent="1" source="3" target="6">
          <mxGeometry x="22" y="165.5" width="100" height="100" as="geometry">
            <mxPoint x="782" y="416" as="sourcePoint" />
            <mxPoint x="630" y="480" as="targetPoint" />
            <Array as="points">
              <mxPoint x="810" y="440" />
            </Array>
          </mxGeometry>
        </mxCell>
        <mxCell id="Xg9k1YAQE1Uhe5DRs7J3-79" value="Client login" style="rounded=1;fillColor=#10739E;strokeColor=none;shadow=1;gradientColor=none;fontStyle=1;fontColor=#FFFFFF;fontSize=14;" vertex="1" parent="1">
          <mxGeometry x="677" y="730" width="200" height="60" as="geometry" />
        </mxCell>
        <mxCell id="Xg9k1YAQE1Uhe5DRs7J3-80" value="Sessions" style="rounded=1;fillColor=#10739E;strokeColor=none;shadow=1;gradientColor=none;fontStyle=1;fontColor=#FFFFFF;fontSize=14;" vertex="1" parent="1">
          <mxGeometry x="650" y="850" width="200" height="60" as="geometry" />
        </mxCell>
        <mxCell id="Xg9k1YAQE1Uhe5DRs7J3-81" value="Contacts" style="rounded=1;fillColor=#10739E;strokeColor=none;shadow=1;gradientColor=none;fontStyle=1;fontColor=#FFFFFF;fontSize=14;" vertex="1" parent="1">
          <mxGeometry x="740" y="980" width="200" height="60" as="geometry" />
        </mxCell>
        <mxCell id="Xg9k1YAQE1Uhe5DRs7J3-82" value="Payment" style="rounded=1;fillColor=#10739E;strokeColor=none;shadow=1;gradientColor=none;fontStyle=1;fontColor=#FFFFFF;fontSize=14;" vertex="1" parent="1">
          <mxGeometry x="960" y="980" width="200" height="60" as="geometry" />
        </mxCell>
        <mxCell id="Xg9k1YAQE1Uhe5DRs7J3-83" value="" style="edgeStyle=elbowEdgeStyle;elbow=vertical;strokeWidth=4;endArrow=block;endFill=1;fontStyle=1;strokeColor=#23445D;entryX=0.5;entryY=0;entryDx=0;entryDy=0;exitX=0.5;exitY=1;exitDx=0;exitDy=0;" edge="1" parent="1" source="3" target="Xg9k1YAQE1Uhe5DRs7J3-79">
          <mxGeometry x="22" y="165.5" width="100" height="100" as="geometry">
            <mxPoint x="912" y="710" as="sourcePoint" />
            <mxPoint x="980" y="790" as="targetPoint" />
            <Array as="points" />
          </mxGeometry>
        </mxCell>
        <mxCell id="Xg9k1YAQE1Uhe5DRs7J3-84" value="" style="edgeStyle=elbowEdgeStyle;elbow=vertical;strokeWidth=4;endArrow=block;endFill=1;fontStyle=1;strokeColor=#23445D;entryX=0.5;entryY=0;entryDx=0;entryDy=0;exitX=0.5;exitY=1;exitDx=0;exitDy=0;" edge="1" parent="1" source="Xg9k1YAQE1Uhe5DRs7J3-80" target="Xg9k1YAQE1Uhe5DRs7J3-81">
          <mxGeometry x="22" y="165.5" width="100" height="100" as="geometry">
            <mxPoint x="787" y="416" as="sourcePoint" />
            <mxPoint x="787" y="740" as="targetPoint" />
            <Array as="points" />
          </mxGeometry>
        </mxCell>
        <mxCell id="Xg9k1YAQE1Uhe5DRs7J3-85" value="" style="edgeStyle=elbowEdgeStyle;elbow=vertical;strokeWidth=4;endArrow=block;endFill=1;fontStyle=1;strokeColor=#23445D;entryX=0.478;entryY=-0.032;entryDx=0;entryDy=0;exitX=0.5;exitY=1;exitDx=0;exitDy=0;entryPerimeter=0;" edge="1" parent="1" source="Xg9k1YAQE1Uhe5DRs7J3-79" target="Xg9k1YAQE1Uhe5DRs7J3-80">
          <mxGeometry x="22" y="165.5" width="100" height="100" as="geometry">
            <mxPoint x="787" y="800" as="sourcePoint" />
            <mxPoint x="800" y="840" as="targetPoint" />
            <Array as="points" />
          </mxGeometry>
        </mxCell>
        <mxCell id="Xg9k1YAQE1Uhe5DRs7J3-86" value="" style="edgeStyle=elbowEdgeStyle;elbow=vertical;strokeWidth=4;endArrow=block;endFill=1;fontStyle=1;strokeColor=#23445D;exitX=0.5;exitY=1;exitDx=0;exitDy=0;" edge="1" parent="1" source="Xg9k1YAQE1Uhe5DRs7J3-80" target="Xg9k1YAQE1Uhe5DRs7J3-82">
          <mxGeometry x="22" y="165.5" width="100" height="100" as="geometry">
            <mxPoint x="787" y="800" as="sourcePoint" />
            <mxPoint x="556" y="838" as="targetPoint" />
            <Array as="points" />
          </mxGeometry>
        </mxCell>
        <mxCell id="Xg9k1YAQE1Uhe5DRs7J3-87" value="" style="edgeStyle=elbowEdgeStyle;elbow=vertical;strokeWidth=4;endArrow=block;endFill=1;fontStyle=1;strokeColor=#23445D;exitX=0.5;exitY=1;exitDx=0;exitDy=0;entryX=0.405;entryY=1.032;entryDx=0;entryDy=0;entryPerimeter=0;" edge="1" parent="1" source="Xg9k1YAQE1Uhe5DRs7J3-79" target="6">
          <mxGeometry x="22" y="165.5" width="100" height="100" as="geometry">
            <mxPoint x="787" y="800" as="sourcePoint" />
            <mxPoint x="1070" y="860" as="targetPoint" />
            <Array as="points">
              <mxPoint x="830" y="820" />
            </Array>
          </mxGeometry>
        </mxCell>
      </root>
    </mxGraphModel>
  </diagram>
</mxfile>
